name Walk3.mot
datacolumns 19
datarows 27
range 1.65500000 1.78500000
endheader

                time	   L_ground_force_vx	   L_ground_force_vy	   L_ground_force_vz	   L_ground_force_px	   L_ground_force_py	   L_ground_force_pz	   R_ground_force_vx	   R_ground_force_vy	   R_ground_force_vz	   R_ground_force_px	   R_ground_force_py	   R_ground_force_pz	   L_ground_torque_x	   L_ground_torque_y	   L_ground_torque_z	   R_ground_torque_x	   R_ground_torque_y	   R_ground_torque_z	
          1.65500000	         -0.00000002	         -0.00000005	          0.00000000	          0.00000000	          0.00000000	          0.00000000	         -1.34370811	         -5.75913763	         -0.18551283	          0.02998790	          0.00000000	          0.00786856	          0.00000000	          0.00000000	          0.00000000	          0.00000000	          0.25177474	          0.00000000	
          1.66000000	         -0.00000002	         -0.00000004	          0.00000000	          0.00000000	          0.00000000	          0.00000000	         -1.54030955	         -6.47639139	         -0.26848620	          0.01331717	          0.00000000	          0.00376005	          0.00000000	          0.00000000	          0.00000000	          0.00000000	          0.31451974	          0.00000000	
          1.66500000	         -0.00000001	         -0.00000004	          0.00000000	          0.00000000	          0.00000000	          0.00000000	         -1.54456639	         -6.42414808	         -0.30046139	          0.00157333	          0.00000000	          0.00082797	          0.00000000	          0.00000000	          0.00000000	          0.00000000	          0.32988219	          0.00000000	
          1.67000000	         -0.00000001	         -0.00000003	          0.00000000	          0.00000000	          0.00000000	          0.00000000	         -1.42513969	         -5.88257302	         -0.29720361	         -0.00608220	          0.00000000	         -0.00111780	          0.00000000	          0.00000000	          0.00000000	          0.00000000	          0.31364414	          0.00000000	
          1.67500000	         -0.00000001	         -0.00000002	          0.00000000	          0.00000000	          0.00000000	          0.00000000	         -1.23584234	         -5.07003102	         -0.27160924	         -0.01051052	          0.00000000	         -0.00227718	          0.00000000	          0.00000000	          0.00000000	          0.00000000	          0.27842553	          0.00000000	
          1.68000000	         -0.00000001	         -0.00000002	          0.00000000	          0.00000000	          0.00000000	          0.00000000	         -1.01670943	         -4.14798543	         -0.23371506	         -0.01251905	          0.00000000	         -0.00284057	          0.00000000	          0.00000000	          0.00000000	          0.00000000	          0.23382043	          0.00000000	
          1.68500000	         -0.00000000	         -0.00000001	          0.00000000	          0.00000000	          0.00000000	          0.00000000	         -0.79577432	         -3.22863996	         -0.19093022	         -0.01281698	          0.00000000	         -0.00297720	          0.00000000	          0.00000000	          0.00000000	          0.00000000	          0.18672367	          0.00000000	
          1.69000000	         -0.00000000	         -0.00000001	          0.00000000	          0.00000000	          0.00000000	          0.00000000	         -0.59115679	         -2.38373514	         -0.14839286	         -0.01199437	          0.00000000	         -0.00282937	          0.00000000	          0.00000000	          0.00000000	          0.00000000	          0.14175385	          0.00000000	
          1.69500000	         -0.00000000	         -0.00000000	          0.00000000	          0.00000000	          0.00000000	          0.00000000	         -0.41318617	         -1.65338942	         -0.10937839	         -0.01051824	          0.00000000	         -0.00251079	          0.00000000	          0.00000000	          0.00000000	          0.00000000	          0.10170456	          0.00000000	
          1.70000000	         -0.00000000	         -0.00000000	          0.00000000	          0.00000000	          0.00000000	          0.00000000	         -0.26637903	         -1.05426974	         -0.07570866	         -0.00873976	          0.00000000	         -0.00210792	          0.00000000	          0.00000000	          0.00000000	          0.00000000	          0.06797812	          0.00000000	
          1.70500000	         -0.00000000	          0.00000000	          0.00000000	          0.00000000	          0.00000000	          0.00000000	         -0.15116710	         -0.58668591	         -0.04812928	         -0.00690804	          0.00000000	         -0.00168286	          0.00000000	          0.00000000	          0.00000000	          0.00000000	          0.04097376	          0.00000000	
          1.71000000	          0.00000000	          0.00000000	          0.00000000	          0.00000000	          0.00000000	         -0.00000000	         -0.06532843	         -0.24043370	         -0.02663671	         -0.00518705	          0.00000000	         -0.00127718	          0.00000000	          0.00000000	          0.00000000	          0.00000000	          0.02041586	          0.00000000	
          1.71500000	          0.00000000	          0.00000000	         -0.00000000	          0.00000000	          0.00000000	         -0.00000000	         -0.00511506	          0.00062654	         -0.01074730	         -0.00367319	          0.00000000	         -0.00091602	          0.00000000	         -0.00000000	          0.00000000	          0.00000000	          0.00561783	          0.00000000	
          1.72000000	          0.00000000	          0.00000000	         -0.00000000	          0.00000000	          0.00000000	         -0.00000000	          0.03390314	          0.15516425	          0.00029225	         -0.00241187	          0.00000000	         -0.00061196	          0.00000000	         -0.00000000	          0.00000000	          0.00000000	         -0.00431616	          0.00000000	
          1.72500000	          0.00000000	          0.00000000	         -0.00000000	         -0.00000000	          0.00000000	         -0.00000000	          0.05624343	          0.24199467	          0.00734859	         -0.00141226	          0.00000000	         -0.00036858	          0.00000000	         -0.00000000	          0.00000000	          0.00000000	         -0.01034528	          0.00000000	
          1.73000000	          0.00000000	          0.00000000	         -0.00000000	         -0.00000000	          0.00000000	         -0.00000000	          0.06612165	          0.27853848	          0.01129250	         -0.00065954	          0.00000000	         -0.00018336	          0.00000000	         -0.00000000	          0.00000000	          0.00000000	         -0.01339345	          0.00000000	
          1.73500000	          0.00000000	          0.00000000	         -0.00000000	         -0.00000000	          0.00000000	         -0.00000000	          0.06722694	          0.27994430	          0.01292855	         -0.00012467	          0.00000000	         -0.00005007	          0.00000000	         -0.00000000	          0.00000000	          0.00000000	         -0.01428893	          0.00000000	
          1.74000000	          0.00000000	          0.00000000	         -0.00000000	         -0.00000000	          0.00000000	         -0.00000000	          0.06261890	          0.25870561	          0.01295523	          0.00022819	          0.00000000	          0.00003936	          0.00000000	         -0.00000000	          0.00000000	          0.00000000	         -0.01373310	          0.00000000	
          1.74500000	          0.00000000	          0.00000000	         -0.00000000	         -0.00000000	          0.00000000	         -0.00000000	          0.05471146	          0.22462517	          0.01194773	          0.00043643	          0.00000000	          0.00009360	          0.00000000	         -0.00000000	          0.00000000	          0.00000000	         -0.01229053	          0.00000000	
          1.75000000	          0.00000000	          0.00000000	         -0.00000000	         -0.00000000	          0.00000000	         -0.00000000	          0.04531355	          0.18500490	          0.01035672	          0.00053545	          0.00000000	          0.00012098	          0.00000000	         -0.00000000	          0.00000000	          0.00000000	         -0.01039341	          0.00000000	
          1.75500000	          0.00000000	          0.00000000	         -0.00000000	         -0.00000000	          0.00000000	         -0.00000000	          0.03570310	          0.14496555	          0.00851735	          0.00055660	          0.00000000	          0.00012897	          0.00000000	         -0.00000000	          0.00000000	          0.00000000	         -0.00835483	          0.00000000	
          1.76000000	          0.00000000	          0.00000000	         -0.00000000	         -0.00000000	          0.00000000	         -0.00000000	          0.02671643	          0.10782406	          0.00666417	          0.00052615	          0.00000000	          0.00012389	          0.00000000	         -0.00000000	          0.00000000	          0.00000000	         -0.00638676	          0.00000000	
          1.76500000	          0.00000000	          0.00000000	         -0.00000000	         -0.00000000	          0.00000000	         -0.00000000	          0.01884050	          0.07547836	          0.00494871	          0.00046500	          0.00000000	          0.00011084	          0.00000000	         -0.00000000	          0.00000000	          0.00000000	         -0.00461956	          0.00000000	
          1.77000000	          0.00000000	          0.00000000	         -0.00000000	         -0.00000000	          0.00000000	         -0.00000000	          0.01229976	          0.04876627	          0.00345724	          0.00038902	          0.00000000	          0.00009370	          0.00000000	         -0.00000000	          0.00000000	          0.00000000	         -0.00312094	          0.00000000	
          1.77500000	          0.00000000	         -0.00000000	         -0.00000000	         -0.00000000	          0.00000000	         -0.00000000	          0.00713255	          0.02777950	          0.00222736	          0.00030952	          0.00000000	          0.00007530	          0.00000000	         -0.00000000	          0.00000000	          0.00000000	         -0.00191307	          0.00000000	
          1.78000000	         -0.00000000	         -0.00000000	         -0.00000000	         -0.00000000	          0.00000000	          0.00000000	          0.00325482	          0.01212407	          0.00126250	          0.00023407	          0.00000000	          0.00005755	          0.00000000	         -0.00000000	          0.00000000	          0.00000000	         -0.00098719	          0.00000000	
          1.78500000	         -0.00000000	         -0.00000000	          0.00000000	         -0.00000000	          0.00000000	          0.00000000	          0.00051069	          0.00112568	          0.00054391	          0.00016716	          0.00000000	          0.00004161	          0.00000000	          0.00000000	          0.00000000	          0.00000000	         -0.00031537	          0.00000000	
